<svg width="248.003173828125" height="303.999755859375" viewBox="127.99981689453125 98 256.003173828125 311.999755859375" fill="none" xmlns="http://www.w3.org/2000/svg">
<path d="M309.677 323.569C307.738 370.739 266.062 407.919 217.346 405.923C168.63 403.928 130.144 363.461 132.069 316.291C134.008 269.121 175.684 231.941 224.4 233.936" stroke="black" stroke-width="10" stroke-miterlimit="10"/>
<path d="M276.024 169.446C294.649 169.446 309.747 154.348 309.747 135.723C309.747 117.098 294.649 102 276.024 102C257.399 102 242.301 117.098 242.301 135.723C242.301 154.348 257.399 169.446 276.024 169.446Z" stroke="black" stroke-width="10" stroke-miterlimit="10"/>
<path d="M239.491 301.312L242.723 208.602C243.271 192.907 256.155 180.471 271.851 180.471H281.04C295.864 180.471 308.665 190.855 311.742 205.356L318.5 251.5C320.987 263.219 333.774 268.994 345.76 268.994C360.261 268.994 372.275 280.277 373.16 294.75L380.003 405.291H335.784L324.571 329.667C322.491 315.63 310.801 304.993 296.623 304.263L239.491 301.312Z" stroke="black" stroke-width="10" stroke-miterlimit="10"/>
<path d="M224.359 238.395V211.697V185H132" stroke="black" stroke-width="10" stroke-miterlimit="10" stroke-linecap="round"/>
<path d="M224.737 320.281H287.265C287.265 354.58 259.036 382.809 224.737 382.809C190.438 382.809 162.209 354.58 162.209 320.281C162.209 285.982 190.438 257.753 224.737 257.753V320.281Z" stroke="black" stroke-width="10" stroke-miterlimit="10"/>
</svg>