<svg width="295" height="195" viewBox="79.5 103.5 303 203" fill="none" xmlns="http://www.w3.org/2000/svg">
<rect x="83.5" y="107.5" width="295" height="195" rx="40.5" stroke="black" stroke-width="5"/>
<rect x="108.5" y="241.5" width="106" height="38" stroke="black" stroke-width="5"/>
<circle cx="162" cy="178" r="47.5" stroke="black" stroke-width="5"/>
<path d="M175.755 196.896C165.842 206.507 150.015 206.263 140.403 196.351C130.792 186.439 131.035 170.612 140.948 161" stroke="black" stroke-width="5"/>
<path d="M141 241.5V279.5M180.5 241.5V260.5V279.5" stroke="black" stroke-width="5"/>
<rect x="247.5" y="241.5" width="106" height="38" stroke="black" stroke-width="5"/>
<circle cx="301" cy="178" r="47.5" stroke="black" stroke-width="5"/>
<path d="M314.755 196.896C304.842 206.507 289.015 206.263 279.403 196.351C269.792 186.439 270.035 170.612 279.948 161" stroke="black" stroke-width="5"/>
<path d="M280 241.5V279.5M319.5 241.5V260.5V279.5" stroke="black" stroke-width="5"/>
</svg>