<svg width="300" height="300" viewBox="102 102 308 308" fill="none" xmlns="http://www.w3.org/2000/svg">
<circle cx="256" cy="256" r="150" stroke="black" stroke-width="5" stroke-linejoin="round"/>
<circle cx="256" cy="256" r="25" stroke="black" stroke-width="5" stroke-linejoin="round"/>
<path d="M242.598 233.286L245.755 211.123C247.002 202.369 244.714 193.48 239.397 186.416V186.416C230.856 175.069 232.725 159.016 243.644 149.935L245.309 148.55C252.697 142.406 262.656 140.335 271.881 143.027L275.588 144.108C289.218 148.085 299.558 159.232 302.501 173.122V173.122C304.177 181.036 303.321 189.277 300.054 196.678L278.5 245.5" stroke="black" stroke-width="5"/>
<path d="M281.704 255.058L299.428 268.736C306.478 274.176 315.445 276.496 324.248 275.157V275.157C338.242 273.028 351.379 282.45 353.85 296.387L354.424 299.622C356.088 309.009 353.105 318.621 346.418 325.417L342.802 329.092C332.912 339.143 318.251 342.857 304.768 338.728V338.728C296.975 336.341 290.161 331.501 285.341 324.928L253.5 281.5" stroke="black" stroke-width="5"/>
<path d="M244.5 278.5L219.859 285.615C211.086 288.148 203.808 294.298 199.848 302.526V302.526C193.808 315.075 178.864 320.518 166.168 314.794L162.818 313.283C154.126 309.364 147.87 301.477 146.033 292.12L145.017 286.945C142.317 273.193 147.489 259.08 158.437 250.33V250.33C164.87 245.189 172.813 242.301 181.046 242.112L235.61 240.857" stroke="black" stroke-width="5"/>
<path d="M206.47 164.798C194.368 165.551 182.921 171.167 177.458 186.122" stroke="black" stroke-width="5"/>
<path d="M206.856 176.338C199.873 175.912 192.93 178.443 188.772 186.993" stroke="black" stroke-width="5"/>
<path d="M361.955 266.947C367.272 255.619 368.012 242.52 357.631 230.303" stroke="black" stroke-width="5"/>
<path d="M351.051 261.315C355.076 255.593 356.562 248.354 351.462 240.33" stroke="black" stroke-width="5"/>
<path d="M185.374 337.01C191.236 348.195 200.945 356.57 216 355.049" stroke="black" stroke-width="5"/>
<path d="M195.63 331.152C197.865 337.93 202.647 343.467 211.603 343.917" stroke="black" stroke-width="5"/>
</svg>