<svg width="300" height="300" viewBox="102 102 308 308" fill="none" xmlns="http://www.w3.org/2000/svg">
<circle cx="256" cy="256" r="150" stroke="black" stroke-width="5" stroke-linejoin="round"/>
<rect x="183.5" y="221.5" width="145" height="95" stroke="black" stroke-width="5"/>
<path d="M227.5 221.5V317.5" stroke="black" stroke-width="5"/>
<path d="M185 281H328.5" stroke="black" stroke-width="5"/>
<path d="M228.156 218.355C227.989 218.725 227.558 219.215 226.454 219.613C225.339 220.014 223.745 220.235 221.708 220.163C217.647 220.02 212.339 218.731 206.82 216.237C201.3 213.743 196.826 210.611 194.035 207.657C192.635 206.175 191.748 204.833 191.312 203.732C190.881 202.64 190.964 201.993 191.131 201.623C191.299 201.252 191.729 200.763 192.834 200.365C193.948 199.964 195.542 199.743 197.579 199.815C201.641 199.958 206.948 201.246 212.467 203.741C217.987 206.235 222.461 209.367 225.252 212.321C226.653 213.802 227.54 215.145 227.975 216.246C228.407 217.338 228.323 217.985 228.156 218.355Z" stroke="black" stroke-width="5"/>
<path d="M230.404 218.022C229.857 217.04 229.936 214.903 232.35 211.622C234.619 208.538 238.465 205.193 243.395 202.447C248.325 199.7 253.193 198.189 257.01 197.883C261.07 197.557 262.929 198.614 263.476 199.595C264.023 200.577 263.944 202.714 261.53 205.995C259.261 209.079 255.414 212.424 250.484 215.17C245.554 217.917 240.686 219.428 236.869 219.734C232.809 220.06 230.951 219.004 230.404 218.022Z" stroke="black" stroke-width="5"/>
<path d="M229.5 220.5C219.901 219.718 217.87 241.974 208 237" stroke="black" stroke-width="5"/>
<path d="M229.5 220.5C229.5 220.5 239.926 228.872 242.5 236.5C245.316 244.844 236 255 241 259" stroke="black" stroke-width="5"/>
<rect x="268.5" y="172.5" width="52" height="45" stroke="black" stroke-width="3"/>
<path d="M284 171V219" stroke="black" stroke-width="3"/>
<path d="M269 200H320" stroke="black" stroke-width="3"/>
<path d="M283.836 170.491C283.735 170.785 283.248 171.296 281.764 171.227C280.38 171.163 278.529 170.58 276.577 169.419C274.625 168.259 273.069 166.816 272.118 165.492C271.098 164.072 271.067 163.253 271.169 162.958C271.27 162.663 271.757 162.153 273.241 162.222C274.625 162.286 276.476 162.869 278.428 164.029C280.38 165.19 281.936 166.633 282.887 167.957C283.907 169.377 283.938 170.196 283.836 170.491Z" stroke="black" stroke-width="3"/>
<path d="M285.524 170.3C285.367 169.93 285.356 169.064 286.171 167.607C286.943 166.226 288.277 164.689 290.017 163.413C291.757 162.138 293.452 161.454 294.752 161.317C296.121 161.172 296.676 161.64 296.832 162.01C296.989 162.38 296.999 163.246 296.185 164.703C295.413 166.084 294.078 167.621 292.339 168.897C290.599 170.172 288.904 170.856 287.604 170.993C286.235 171.138 285.68 170.67 285.524 170.3Z" stroke="black" stroke-width="3"/>
<path d="M284 171.011C280.428 170.602 279.673 182.217 276 179.621" stroke="black" stroke-width="3"/>
<path d="M284 171C284 171 287.849 175.132 288.8 178.896C289.839 183.014 286.4 188.026 288.246 190" stroke="black" stroke-width="3"/>
</svg>