<svg width="300" height="300" viewBox="102 102 308 308" fill="none" xmlns="http://www.w3.org/2000/svg">
<circle cx="256" cy="256" r="150" stroke="black" stroke-width="5" stroke-linejoin="round"/>
<path d="M262.367 201.867C253.596 191.775 235.514 180 235.514 180C235.514 180 234.873 203.539 229.05 217.221C219.939 238.626 194.107 239.282 187.28 261.42C182.865 275.735 182.948 285.234 187.28 299.571C191.041 312.019 195.112 319.082 204.684 328.417C214.461 337.951 221.955 342.407 235.514 346.097C249.873 350.003 259.424 349.932 273.804 346.097C287.544 342.432 295.076 337.914 305.131 328.417C314.999 319.097 319.944 312.253 323.53 299.571C327.969 283.875 326.296 273.123 319.552 258.163C314.735 247.479 301.153 233.97 301.153 233.97L280.268 255.837C280.268 255.837 281.64 237.152 277.782 226.06C274.144 215.601 269.784 210.401 262.367 201.867Z" stroke="black" stroke-width="5"/>
<path d="M258.216 268.222C254.387 263.504 246.492 258 246.492 258C246.492 258 246.212 269.004 243.67 275.399C239.692 285.405 228.413 285.712 225.432 296.06C223.505 302.752 223.541 307.192 225.432 313.894C227.074 319.713 228.852 323.015 233.031 327.378C237.3 331.835 240.572 333.918 246.492 335.643C252.761 337.469 256.931 337.436 263.21 335.643C269.209 333.93 272.498 331.818 276.888 327.378C281.197 323.022 283.356 319.822 284.922 313.894C286.86 306.557 286.129 301.531 283.185 294.538C281.082 289.543 275.151 283.228 275.151 283.228L266.033 293.45C266.033 293.45 266.631 284.716 264.947 279.531C263.358 274.642 261.455 272.211 258.216 268.222Z" stroke="black" stroke-width="5"/>
<path d="M240.639 121C240.639 121 224 131.87 224 141.652C224 151.435 238.177 144.247 240.639 151.435C243.901 160.961 224 171 224 171" stroke="black" stroke-width="3"/>
<path d="M261.66 121C261.66 121 246 131.87 246 141.652C246 151.435 259.343 144.247 261.66 151.435C264.731 160.961 246 171 246 171" stroke="black" stroke-width="3"/>
<path d="M283.639 121C283.639 121 267 131.87 267 141.652C267 151.435 281.177 144.247 283.639 151.435C286.901 160.961 267 171 267 171" stroke="black" stroke-width="3"/>
</svg>