<svg width="300" height="300" viewBox="102 102 308 308" fill="none" xmlns="http://www.w3.org/2000/svg">
<circle cx="256" cy="256" r="150" stroke="black" stroke-width="5" stroke-linejoin="round"/>
<path d="M304.5 241.182C304.5 257.92 289.562 272.357 277 288C271.5 299 274.5 292 270 306.5H245.5C245.5 306.5 240.34 289.859 235 285.5C220.604 273.747 207 264.017 207 241.182C207 209.877 228.886 190 256.5 190C284.114 190 304.5 209.877 304.5 241.182Z" stroke="black" stroke-width="5"/>
<path d="M245 317H272.474L245 330H274" stroke="black" stroke-width="5"/>
<path d="M312 256H332" stroke="black" stroke-width="5"/>
<path d="M176 256H196" stroke="black" stroke-width="5"/>
<path d="M305.489 205.539L323.049 195.966" stroke="black" stroke-width="5"/>
<path d="M186 196L203.786 205.147" stroke="black" stroke-width="5"/>
<path d="M258 179L258.011 159" stroke="black" stroke-width="5"/>
</svg>