<svg width="320" height="320" viewBox="92 100 328 328" fill="none" xmlns="http://www.w3.org/2000/svg">
<path d="M256 164.667C282.533 164.667 307.48 175 326.24 193.76C345 212.52 355.333 237.467 355.333 264C355.333 290.533 345 315.48 326.24 334.24C307.48 353 282.533 363.333 256 363.333C229.467 363.333 204.52 353 185.76 334.24C167 315.48 156.667 290.533 156.667 264C156.667 237.467 167 212.52 185.76 193.76C204.52 175 229.467 164.667 256 164.667ZM256 164C200.773 164 156 208.773 156 264C156 319.227 200.773 364 256 364C311.227 364 356 319.227 356 264C356 208.773 311.227 164 256 164Z" fill="black" stroke="black" stroke-width="5"/>
<path d="M259 423C245.77 423 235 412.23 235 399C235 385.77 245.77 375 259 375C272.23 375 283 385.77 283 399C283 412.23 272.23 423 259 423ZM259 424C272.81 424 284 412.81 284 399C284 385.19 272.81 374 259 374C245.19 374 234 385.19 234 399C234 412.81 245.19 424 259 424Z" fill="black" stroke="black" stroke-width="5"/>
<path d="M391 283C377.77 283 367 272.23 367 259C367 245.77 377.77 235 391 235C404.23 235 415 245.77 415 259C415 272.23 404.23 283 391 283ZM391 284C404.81 284 416 272.81 416 259C416 245.19 404.81 234 391 234C377.19 234 366 245.19 366 259C366 272.81 377.19 284 391 284Z" fill="black" stroke="black" stroke-width="5"/>
<path d="M121 283C107.77 283 97 272.23 97 259C97 245.77 107.77 235 121 235C134.23 235 145 245.77 145 259C145 272.23 134.23 283 121 283ZM121 284C134.81 284 146 272.81 146 259C146 245.19 134.81 234 121 234C107.19 234 96 245.19 96 259C96 272.81 107.19 284 121 284Z" fill="black" stroke="black" stroke-width="5"/>
<path d="M256 153C242.77 153 232 142.23 232 129C232 115.77 242.77 105 256 105C269.23 105 280 115.77 280 129C280 142.23 269.23 153 256 153ZM256 154C269.81 154 281 142.81 281 129C281 115.19 269.81 104 256 104C242.19 104 231 115.19 231 129C231 142.81 242.19 154 256 154Z" fill="black" stroke="black" stroke-width="5"/>
</svg>