<svg width="300" height="300" viewBox="102 102 308 308" fill="none" xmlns="http://www.w3.org/2000/svg">
<path d="M406 106H397V106.75H406V106ZM388 106H379V106.75H388V106ZM370 106H361V106.75H370V106ZM352 106H343V106.75H352V106ZM334 106H325V106.75H334V106ZM316 106H307V106.75H316V106ZM298 106H289V106.75H298V106ZM280 106H271V106.75H280V106ZM262 106H253V106.75H262V106ZM244 106H235V106.75H244V106ZM226 106H217V106.75H226V106ZM208 106H199V106.75H208V106ZM190 106H181V106.75H190V106ZM172 106H163V106.75H172V106ZM154 106H145V106.75H154V106ZM136 106H127V106.75H136V106ZM118 106H109V106.75H118V106ZM106.75 112H106V121H106.75V112ZM106.75 130H106V139H106.75V130ZM106.75 148H106V157H106.75V148ZM106.75 166H106V175H106.75V166ZM106.75 184H106V193H106.75V184ZM106.75 202H106V211H106.75V202ZM106.75 220H106V229H106.75V220ZM106.75 238H106V247H106.75V238ZM106.75 256H106V265H106.75V256ZM106.75 274H106V283H106.75V274ZM106.75 292H106V301H106.75V292ZM106.75 310H106V319H106.75V310ZM106.75 328H106V337H106.75V328ZM106.75 346H106V355H106.75V346ZM106.75 364H106V373H106.75V364ZM106.75 382H106V391H106.75V382ZM106.75 400H106V406H106.75C107.635 406 109 406 109 406V405.25H106.75V400ZM127 405.25H118V406H127V405.25ZM145 405.25H136V406H145V405.25ZM163 405.25H154V406H163V405.25ZM181 405.25H172V406H181V405.25ZM199 405.25H190V406H199V405.25ZM217 405.25H208V406H217V405.25ZM235 405.25H226V406H235V405.25ZM253 405.25H244V406H253V405.25ZM271 405.25H262V406H271V405.25ZM289 405.25H280V406H289V405.25ZM307 405.25H298V406H307V405.25ZM325 405.25H316V406H325V405.25ZM343 405.25H334V406H343V405.25ZM361 405.25H352V406H361V405.25ZM379 405.25H370V406H379V405.25ZM397 405.25H388V406H397V405.25ZM406 397H405.25V406H406V397ZM406 379H405.25V388H406V379ZM406 361H405.25V370H406V361ZM406 343H405.25V352H406V343ZM406 325H405.25V334H406V325ZM406 307H405.25V316H406V307ZM406 289H405.25V298H406V289ZM406 271H405.25V280H406V271ZM406 253H405.25V262H406V253ZM406 235H405.25V244H406V235ZM406 217H405.25V226H406V217ZM406 199H405.25V208H406V199ZM406 181H405.25V190H406V181ZM406 163H405.25V172H406V163ZM406 145H405.25V154H406V145ZM406 127H405.25V136H406V127ZM406 109H405.25V118H406V109Z" fill="black" stroke="black" stroke-width="5"/>
</svg>