<svg width="350.010009765625" height="250.010009765625" viewBox="77 125 358.010009765625 258.010009765625" fill="none" xmlns="http://www.w3.org/2000/svg">
<path d="M361.24 130C399.15 130 430 160.84 430 198.76V309.25C430 347.16 399.16 378.01 361.24 378.01H150.76C112.84 378 82 347.16 82 309.24V198.76C82 160.85 112.84 130 150.76 130H361.24ZM361.24 129H150.76C112.23 129 81 160.23 81 198.76V309.25C81 347.78 112.23 379.01 150.76 379.01H361.25C399.78 379.01 431.01 347.78 431.01 309.25V198.76C431 160.23 399.77 129 361.24 129Z" fill="black" stroke="black" stroke-width="5"/>
<path d="M167.69 329C147.73 329 131.5 312.76 131.5 292.81V216.2C131.5 196.24 147.74 180.01 167.69 180.01H344.3C364.26 180.01 380.49 196.25 380.49 216.2V292.81C380.49 312.77 364.25 329 344.3 329H167.69Z" stroke="black" stroke-width="5"/>
<path d="M344.31 180.5C363.99 180.5 380 196.51 380 216.19V292.8C380 312.48 363.99 328.49 344.31 328.49H167.69C148.01 328.49 132 312.48 132 292.8V216.19C132 196.51 148.01 180.5 167.69 180.5H344.31ZM344.31 179.5H167.69C147.42 179.5 131 195.93 131 216.19V292.8C131 313.07 147.43 329.49 167.69 329.49H344.3C364.57 329.49 380.99 313.06 380.99 292.8V216.19C381 195.93 364.57 179.5 344.31 179.5Z" fill="black" stroke="black" stroke-width="5"/>
<path d="M99 151.99L179.5 227.5" stroke="black" stroke-width="5" stroke-miterlimit="10"/>
<path d="M102.29 359.41L184.5 283.5" stroke="black" stroke-width="5" stroke-miterlimit="10"/>
<path d="M327.5 277.5L406.89 361.99" stroke="black" stroke-width="5" stroke-miterlimit="10"/>
<path d="M327.5 222.92L413 151.99" stroke="black" stroke-width="5" stroke-miterlimit="10"/>
</svg>