<svg width="300" height="300" viewBox="102 102 308 308" fill="none" xmlns="http://www.w3.org/2000/svg">
<circle cx="256" cy="256" r="150" stroke="black" stroke-width="5" stroke-linejoin="round"/>
<path d="M274.091 246C260.708 221.011 230.281 194 230.281 194C230.281 194 182 241.386 182 269C182 296.614 204.386 319 232 319C249.669 319 265.197 309.835 274.091 296" stroke="black" stroke-width="5"/>
<path d="M197 282C197 282 200.222 291.473 204 296.5C207.236 300.806 214 306 214 306" stroke="black" stroke-width="3" stroke-linecap="round"/>
<path d="M273 282C273 282 275.424 287.101 278 289.5C280.623 291.943 286 294 286 294" stroke="black" stroke-width="3" stroke-linecap="round"/>
<path d="M232.5 164.5C232.5 164.5 239.677 158.666 245 159C250.515 159.346 256 167.5 257 166.5C258 165.5 263.479 159.252 269 159C274.15 158.765 281 164.5 281 164.5" stroke="black" stroke-width="3" stroke-linecap="round"/>
<path d="M224 179.5C224 179.5 235.809 167.548 244.5 169.5C250.6 170.87 254 179.5 257 179.5C260 179.5 264.307 170.094 271 169.5C278.672 168.819 288 179.5 288 179.5" stroke="black" stroke-width="3" stroke-linecap="round"/>
<path d="M328.5 272C328.5 289.949 313.949 304.5 296 304.5C278.051 304.5 263.5 289.949 263.5 272C263.5 267.814 265.434 262.448 268.663 256.527C271.854 250.678 276.139 244.589 280.471 239.04C284.795 233.5 289.126 228.55 292.379 224.982C293.838 223.381 295.078 222.061 296 221.094C296.922 222.061 298.162 223.381 299.621 224.982C302.874 228.55 307.205 233.5 311.529 239.04C315.861 244.589 320.146 250.678 323.337 256.527C326.566 262.448 328.5 267.814 328.5 272Z" stroke="black" stroke-width="5"/>
</svg>