<svg viewBox="0 0 31 31" fill="none" xmlns="http://www.w3.org/2000/svg">
<path d="M15.5 30.5C23.7843 30.5 30.5 23.7843 30.5 15.5C30.5 7.21573 23.7843 0.5 15.5 0.5C7.21573 0.5 0.5 7.21573 0.5 15.5C0.5 23.7843 7.21573 30.5 15.5 30.5Z" fill="#9B1B48" stroke="#9B1B48" stroke-linecap="round" stroke-linejoin="round"/>
<path d="M10.8805 10.5081C9.20351 11.6661 7.98251 13.4391 7.54151 15.5001C7.54151 15.5001 7.41851 15.5001 7.35851 15.5001C6.41051 15.5001 5.64551 16.2681 5.64551 17.2131C5.64551 18.1581 6.41351 18.9261 7.35851 18.9261C7.42151 18.9261 7.54151 18.9261 7.54151 18.9261C8.33051 22.5981 11.5915 25.3551 15.5005 25.3551C19.4095 25.3551 22.6735 22.6011 23.4595 18.9261C23.4595 18.9261 23.5825 18.9261 23.6425 18.9261C24.5905 18.9261 25.3555 18.1581 25.3555 17.2131C25.3555 16.2681 24.5875 15.5001 23.6425 15.5001C23.5795 15.5001 23.4595 15.5001 23.4595 15.5001C23.0185 13.4361 21.7945 11.6631 20.1145 10.5051" fill="white"/>
<path d="M10.8805 10.5081C9.20351 11.6661 7.98251 13.4391 7.54151 15.5001C7.54151 15.5001 7.41851 15.5001 7.35851 15.5001C6.41051 15.5001 5.64551 16.2681 5.64551 17.2131C5.64551 18.1581 6.41351 18.9261 7.35851 18.9261C7.42151 18.9261 7.54151 18.9261 7.54151 18.9261C8.33051 22.5981 11.5915 25.3551 15.5005 25.3551C19.4095 25.3551 22.6735 22.6011 23.4595 18.9261C23.4595 18.9261 23.5825 18.9261 23.6425 18.9261C24.5905 18.9261 25.3555 18.1581 25.3555 17.2131C25.3555 16.2681 24.5875 15.5001 23.6425 15.5001C23.5795 15.5001 23.4595 15.5001 23.4595 15.5001C23.0185 13.4361 21.7945 11.6631 20.1145 10.5051" stroke="white" stroke-linecap="round" stroke-linejoin="round"/>
<path d="M15.501 8.642C15.501 8.642 15.501 7.355 16.788 6.5" stroke="white" stroke-linecap="round" stroke-linejoin="round"/>
<path d="M15.5009 8.21309C15.5009 8.21309 15.5009 6.50009 14.2139 5.64209" stroke="white" stroke-linecap="round" stroke-linejoin="round"/>
<path d="M19.3586 15.9292H17.6426" stroke="#9B1B48" stroke-linecap="round" stroke-linejoin="round"/>
<path d="M18.9293 19.3582C18.9293 19.3582 17.7503 21.9322 15.5003 21.9322C13.2503 21.9322 12.0713 19.3582 12.0713 19.3582H18.9293Z" stroke="#9B1B48" stroke-linecap="round" stroke-linejoin="round"/>
<path d="M12.5006 16.787C12.9744 16.787 13.3586 16.4029 13.3586 15.929C13.3586 15.4552 12.9744 15.071 12.5006 15.071C12.0267 15.071 11.6426 15.4552 11.6426 15.929C11.6426 16.4029 12.0267 16.787 12.5006 16.787Z" stroke="#9B1B48" stroke-linecap="round" stroke-linejoin="round"/>
<path d="M15.5009 11.2161C16.2117 11.2161 16.7879 10.6399 16.7879 9.92909C16.7879 9.2183 16.2117 8.64209 15.5009 8.64209C14.7901 8.64209 14.2139 9.2183 14.2139 9.92909C14.2139 10.6399 14.7901 11.2161 15.5009 11.2161Z" fill="#9B1B48" stroke="white" stroke-linecap="round" stroke-linejoin="round"/>
<path d="M18.5001 11.6421C19.4462 11.6421 20.2131 10.8751 20.2131 9.92906C20.2131 8.983 19.4462 8.21606 18.5001 8.21606C17.554 8.21606 16.7871 8.983 16.7871 9.92906C16.7871 10.8751 17.554 11.6421 18.5001 11.6421Z" fill="#9B1B48" stroke="white" stroke-linecap="round" stroke-linejoin="round"/>
<path d="M14.2172 9.94713C14.2172 10.8921 13.4492 11.6451 12.5012 11.6451C11.5532 11.6451 10.7852 10.8921 10.7852 9.94713C10.7852 9.00213 11.5532 8.21313 12.5012 8.21313C13.4492 8.21313 14.2172 9.00513 14.2172 9.94713Z" fill="#9B1B48" stroke="white" stroke-linecap="round" stroke-linejoin="round"/>
</svg>
