<svg viewBox="0 0 31 31" fill="none" xmlns="http://www.w3.org/2000/svg">
<path d="M15.5 30.5C23.7843 30.5 30.5 23.7843 30.5 15.5C30.5 7.21573 23.7843 0.5 15.5 0.5C7.21573 0.5 0.5 7.21573 0.5 15.5C0.5 23.7843 7.21573 30.5 15.5 30.5Z" fill="#9B1B48" stroke="#9B1B48" stroke-linecap="round" stroke-linejoin="round"/>
<path fill-rule="evenodd" clip-rule="evenodd" d="M17.6434 6.5C23.2144 6.5 23.6434 10.355 23.6434 14.642C24.5884 14.642 25.3565 15.4101 25.3565 16.3551C25.3565 17.3001 24.5915 18.0681 23.6435 18.0681H23.4605C22.6745 21.7431 19.4105 24.4971 15.5015 24.4971C11.5925 24.4971 8.33149 21.7401 7.54248 18.0681H7.35949C6.41449 18.0681 5.64648 17.3001 5.64648 16.3551C5.64648 15.4101 6.41137 14.645 7.35938 14.645V13.787C7.35938 9.929 9.07238 6.5 12.0724 6.5C13.3564 6.5 14.6434 6.929 14.6434 6.929C14.6434 6.929 15.9124 6.5 17.6434 6.5Z" fill="white" stroke="white" stroke-linecap="round" stroke-linejoin="round"/>
<path d="M23.6424 14.642H23.6454C23.6454 14.642 20.2164 13.358 18.5034 9.92896C16.7874 11.216 15.5034 11.216 11.2164 11.216C10.3584 12.932 7.3584 14.645 7.3584 14.645" stroke="#9B1B48" stroke-linecap="round" stroke-linejoin="round"/>
<path fill-rule="evenodd" clip-rule="evenodd" d="M17.6434 6.5C23.2144 6.5 23.6434 10.355 23.6434 14.642C24.5884 14.642 25.3565 15.4101 25.3565 16.3551C25.3565 17.3001 24.5915 18.0681 23.6435 18.0681H23.4605C22.6745 21.7431 19.4105 24.4971 15.5015 24.4971C11.5925 24.4971 8.33149 21.7401 7.54248 18.0681H7.35949C6.41449 18.0681 5.64648 17.3001 5.64648 16.3551C5.64648 15.4101 6.41137 14.645 7.35938 14.645V13.787C7.35938 9.929 9.07238 6.5 12.0724 6.5C13.3564 6.5 14.6434 6.929 14.6434 6.929C14.6434 6.929 15.9124 6.5 17.6434 6.5Z" stroke="white" stroke-linecap="round" stroke-linejoin="round"/>
<path d="M23.2163 18.959C23.2253 20.393 23.3063 22.874 24.0713 23.642C23.6423 24.071 22.7873 24.5 21.5003 24.5C20.0243 24.5 18.6803 24.347 18.0713 24.071" fill="white"/>
<path d="M23.2163 18.959C23.2253 20.393 23.3063 22.874 24.0713 23.642C23.6423 24.071 22.7873 24.5 21.5003 24.5C20.0243 24.5 18.6803 24.347 18.0713 24.071" stroke="white" stroke-linecap="round" stroke-linejoin="round"/>
<path d="M7.78469 18.959C7.77569 20.393 7.69469 22.874 6.92969 23.642C7.35869 24.071 8.21369 24.5 9.50069 24.5C10.9767 24.5 12.3207 24.347 12.9297 24.071" fill="white"/>
<path d="M7.78469 18.959C7.77569 20.393 7.69469 22.874 6.92969 23.642C7.35869 24.071 8.21369 24.5 9.50069 24.5C10.9767 24.5 12.3207 24.347 12.9297 24.071" stroke="white" stroke-linecap="round" stroke-linejoin="round"/>
<path d="M12.501 19.7871C12.501 19.7871 13.5 21.5001 15.501 21.5001C17.502 21.5001 18.501 19.7871 18.501 19.7871" stroke="#9B1B48" stroke-linecap="round" stroke-linejoin="round"/>
<path d="M13.7879 15.5C13.7879 15.5 13.3589 16.358 12.5009 16.358C11.6429 16.358 11.2139 15.5 11.2139 15.5" stroke="#9B1B48" stroke-linecap="round" stroke-linejoin="round"/>
<path d="M19.7879 15.5C19.7879 15.5 19.3589 16.358 18.5009 16.358C17.6429 16.358 17.2139 15.5 17.2139 15.5" stroke="#9B1B48" stroke-linecap="round" stroke-linejoin="round"/>
</svg>
