<svg viewBox="0 0 31 31" fill="none" xmlns="http://www.w3.org/2000/svg">
<path d="M15.5 30.5C23.7843 30.5 30.5 23.7843 30.5 15.5C30.5 7.21573 23.7843 0.5 15.5 0.5C7.21573 0.5 0.5 7.21573 0.5 15.5C0.5 23.7843 7.21573 30.5 15.5 30.5Z" fill="#9B1B48" stroke="#9B1B48" stroke-linecap="round" stroke-linejoin="round"/>
<path d="M12.9355 8.6272C10.2265 9.5272 8.14751 11.8132 7.54151 14.6452C7.54151 14.6452 7.41851 14.6452 7.35851 14.6452C6.41051 14.6452 5.64551 15.4132 5.64551 16.3582C5.64551 17.3032 6.41351 18.0712 7.35851 18.0712C7.42151 18.0712 7.54151 18.0712 7.54151 18.0712C8.33051 21.7432 11.5915 24.5002 15.5005 24.5002C19.4095 24.5002 22.6735 21.7462 23.4595 18.0712C23.4595 18.0712 23.5825 18.0712 23.6425 18.0712C24.5905 18.0712 25.3555 17.3032 25.3555 16.3582C25.3555 15.4132 24.5875 14.6452 23.6425 14.6452C23.5795 14.6452 23.4595 14.6452 23.4595 14.6452C23.0305 12.6472 21.8695 10.9192 20.2705 9.7612" fill="white"/>
<path d="M12.9355 8.6272C10.2265 9.5272 8.14751 11.8132 7.54151 14.6452C7.54151 14.6452 7.41851 14.6452 7.35851 14.6452C6.41051 14.6452 5.64551 15.4132 5.64551 16.3582C5.64551 17.3032 6.41351 18.0712 7.35851 18.0712C7.42151 18.0712 7.54151 18.0712 7.54151 18.0712C8.33051 21.7432 11.5915 24.5002 15.5005 24.5002C19.4095 24.5002 22.6735 21.7462 23.4595 18.0712C23.4595 18.0712 23.5825 18.0712 23.6425 18.0712C24.5905 18.0712 25.3555 17.3032 25.3555 16.3582C25.3555 15.4132 24.5875 14.6452 23.6425 14.6452C23.5795 14.6452 23.4595 14.6452 23.4595 14.6452C23.0305 12.6472 21.8695 10.9192 20.2705 9.7612" stroke="white" stroke-linecap="round" stroke-linejoin="round"/>
<path d="M12.9297 8.642C13.4877 7.31 14.6427 6.5 15.9297 6.5C16.7877 6.5 17.2197 6.815 17.6547 7.292C18.9297 8.687 20.2167 8.213 20.6427 7.784C20.6427 9.071 20.2137 11.213 18.0717 11.213C17.6427 11.213 17.2587 11.039 16.8657 10.727C15.1647 9.374 15.7857 7.979 12.9297 8.642Z" fill="#9B1B48" stroke="white" stroke-linecap="round" stroke-linejoin="round"/>
<path d="M18.9293 18.9199C18.9293 18.9199 17.7503 21.4939 15.5003 21.4939C13.2503 21.4939 12.0713 18.9199 12.0713 18.9199H18.9293Z" stroke="#9B1B48" stroke-linecap="round" stroke-linejoin="round"/>
<path d="M18.9293 13.781L18.0713 15.488H20.2133" stroke="#9B1B48" stroke-linecap="round" stroke-linejoin="round"/>
<path d="M12.0721 13.781L12.9301 15.488H10.7881" stroke="#9B1B48" stroke-linecap="round" stroke-linejoin="round"/>
</svg>
