<svg viewBox="0 0 31 31" fill="none" xmlns="http://www.w3.org/2000/svg">
<path d="M15.5 30.5C23.7843 30.5 30.5 23.7843 30.5 15.5C30.5 7.21573 23.7843 0.5 15.5 0.5C7.21573 0.5 0.5 7.21573 0.5 15.5C0.5 23.7843 7.21573 30.5 15.5 30.5Z" stroke="black" stroke-linecap="round" stroke-linejoin="round"/>
<path d="M15.5005 9.50012C15.5005 9.50012 16.7875 9.92912 16.7875 11.6421C16.7875 12.9291 15.9295 13.7841 15.0745 13.7841C14.5495 13.7841 14.0545 13.3581 13.8655 12.8871C13.6435 12.3291 13.9945 11.6391 14.6455 11.6391" stroke="black" stroke-linecap="round" stroke-linejoin="round"/>
<path d="M11.5525 9.23608C9.53351 10.3581 8.03951 12.3171 7.54151 14.6451C7.54151 14.6451 7.41851 14.6451 7.35851 14.6451C6.41051 14.6451 5.64551 15.4131 5.64551 16.3581C5.64551 17.3031 6.41351 18.0711 7.35851 18.0711C7.42151 18.0711 7.54151 18.0711 7.54151 18.0711C8.33051 21.7431 11.5915 24.5001 15.5005 24.5001C19.4095 24.5001 22.6735 21.7461 23.4595 18.0711C23.4595 18.0711 23.5825 18.0711 23.6425 18.0711C24.5905 18.0711 25.3555 17.3031 25.3555 16.3581C25.3555 15.4131 24.5875 14.6451 23.6425 14.6451C23.5795 14.6451 23.4595 14.6451 23.4595 14.6451C22.9615 12.3171 21.4675 10.3611 19.4485 9.23608" stroke="black" stroke-linecap="round" stroke-linejoin="round"/>
<path d="M15.5009 9.50003C16.2117 9.50003 16.7879 8.92382 16.7879 8.21302C16.7879 7.50223 16.2117 6.92603 15.5009 6.92603C14.7901 6.92603 14.2139 7.50223 14.2139 8.21302C14.2139 8.92382 14.7901 9.50003 15.5009 9.50003Z" stroke="black" stroke-linecap="round" stroke-linejoin="round"/>
<path d="M16.5352 7.451C16.8172 6.887 17.3992 6.5 18.0712 6.5C19.0192 6.5 19.7842 7.268 19.7842 8.213C19.7842 9.158 19.0162 9.926 18.0712 9.926C17.3992 9.926 16.8142 9.539 16.5352 8.975" stroke="black" stroke-linecap="round" stroke-linejoin="round"/>
<path d="M14.4658 8.975C14.1838 9.539 13.6018 9.926 12.9298 9.926C11.9818 9.926 11.2168 9.158 11.2168 8.213C11.2168 7.268 11.9848 6.5 12.9298 6.5C13.6018 6.5 14.1868 6.887 14.4658 7.451" stroke="black" stroke-linecap="round" stroke-linejoin="round"/>
<path d="M12.501 19.7871C12.501 19.7871 13.5 21.5001 15.501 21.5001C17.502 21.5001 18.501 19.7871 18.501 19.7871" stroke="black" stroke-linecap="round" stroke-linejoin="round"/>
<path d="M12.0719 16.787C12.5457 16.787 12.9299 16.4029 12.9299 15.929C12.9299 15.4552 12.5457 15.071 12.0719 15.071C11.598 15.071 11.2139 15.4552 11.2139 15.929C11.2139 16.4029 11.598 16.787 12.0719 16.787Z" stroke="black" stroke-linecap="round" stroke-linejoin="round"/>
<path d="M18.9293 16.787C19.4031 16.787 19.7873 16.4029 19.7873 15.929C19.7873 15.4552 19.4031 15.071 18.9293 15.071C18.4554 15.071 18.0713 15.4552 18.0713 15.929C18.0713 16.4029 18.4554 16.787 18.9293 16.787Z" stroke="black" stroke-linecap="round" stroke-linejoin="round"/>
</svg>
