<svg viewBox="0 0 31 31" fill="none" xmlns="http://www.w3.org/2000/svg">
<path d="M15.5 30.5C23.7843 30.5 30.5 23.7843 30.5 15.5C30.5 7.21573 23.7843 0.5 15.5 0.5C7.21573 0.5 0.5 7.21573 0.5 15.5C0.5 23.7843 7.21573 30.5 15.5 30.5Z" stroke="black" stroke-linecap="round" stroke-linejoin="round"/>
<path d="M15.5009 11.216C16.2117 11.216 16.7879 10.6398 16.7879 9.92897C16.7879 9.21818 16.2117 8.64197 15.5009 8.64197C14.7901 8.64197 14.2139 9.21818 14.2139 9.92897C14.2139 10.6398 14.7901 11.216 15.5009 11.216Z" stroke="black" stroke-linecap="round" stroke-linejoin="round"/>
<path d="M18.5001 11.6419C19.4462 11.6419 20.2131 10.875 20.2131 9.92894C20.2131 8.98288 19.4462 8.21594 18.5001 8.21594C17.554 8.21594 16.7871 8.98288 16.7871 9.92894C16.7871 10.875 17.554 11.6419 18.5001 11.6419Z" stroke="black" stroke-linecap="round" stroke-linejoin="round"/>
<path d="M14.2172 9.94701C14.2172 10.892 13.4492 11.645 12.5012 11.645C11.5532 11.645 10.7852 10.892 10.7852 9.94701C10.7852 9.00201 11.5532 8.21301 12.5012 8.21301C13.4492 8.21301 14.2172 9.00501 14.2172 9.94701Z" stroke="black" stroke-linecap="round" stroke-linejoin="round"/>
<path d="M10.8805 10.508C9.20351 11.666 7.98251 13.439 7.54151 15.5C7.54151 15.5 7.41851 15.5 7.35851 15.5C6.41051 15.5 5.64551 16.268 5.64551 17.213C5.64551 18.158 6.41351 18.926 7.35851 18.926C7.42151 18.926 7.54151 18.926 7.54151 18.926C8.33051 22.598 11.5915 25.355 15.5005 25.355C19.4095 25.355 22.6735 22.601 23.4595 18.926C23.4595 18.926 23.5825 18.926 23.6425 18.926C24.5905 18.926 25.3555 18.158 25.3555 17.213C25.3555 16.268 24.5875 15.5 23.6425 15.5C23.5795 15.5 23.4595 15.5 23.4595 15.5C23.0185 13.436 21.7945 11.663 20.1145 10.505" stroke="black" stroke-linecap="round" stroke-linejoin="round"/>
<path d="M15.5 8.64188C15.5 8.64188 15.5 7.35488 16.787 6.49988" stroke="black" stroke-linecap="round" stroke-linejoin="round"/>
<path d="M15.5009 8.21297C15.5009 8.21297 15.5009 6.49997 14.2139 5.64197" stroke="black" stroke-linecap="round" stroke-linejoin="round"/>
<path d="M19.3586 15.929H17.6426" stroke="black" stroke-linecap="round" stroke-linejoin="round"/>
<path d="M18.9293 19.3579C18.9293 19.3579 17.7503 21.9319 15.5003 21.9319C13.2503 21.9319 12.0713 19.3579 12.0713 19.3579H18.9293Z" stroke="black" stroke-linecap="round" stroke-linejoin="round"/>
<path d="M12.5006 16.787C12.9744 16.787 13.3586 16.4029 13.3586 15.929C13.3586 15.4552 12.9744 15.071 12.5006 15.071C12.0267 15.071 11.6426 15.4552 11.6426 15.929C11.6426 16.4029 12.0267 16.787 12.5006 16.787Z" stroke="black" stroke-linecap="round" stroke-linejoin="round"/>
</svg>
