<svg viewBox="0 0 31 31" fill="none" xmlns="http://www.w3.org/2000/svg">
<path d="M15.5 30.5C23.7843 30.5 30.5 23.7843 30.5 15.5C30.5 7.21573 23.7843 0.5 15.5 0.5C7.21573 0.5 0.5 7.21573 0.5 15.5C0.5 23.7843 7.21573 30.5 15.5 30.5Z" fill="#9B1B48" stroke="#9B1B48" stroke-linecap="round" stroke-linejoin="round"/>
<path fill-rule="evenodd" clip-rule="evenodd" d="M17.6414 6.48975C23.2124 6.48975 23.6414 10.3447 23.6414 14.6317C24.5864 14.6317 25.3545 15.3998 25.3545 16.3448C25.3545 17.2898 24.5895 18.0578 23.6415 18.0578H23.4585C22.6725 21.7328 19.4085 24.4868 15.4995 24.4868C11.5905 24.4868 8.32953 21.7298 7.54053 18.0578H7.35753C6.41254 18.0578 5.64453 17.2898 5.64453 16.3448C5.64453 15.3998 6.40942 14.6347 7.35742 14.6347V13.7767C7.35742 9.91875 9.07042 6.48975 12.0704 6.48975C13.3544 6.48975 14.6414 6.91875 14.6414 6.91875C14.6414 6.91875 15.9104 6.48975 17.6414 6.48975Z" fill="white" stroke-linecap="round" stroke-linejoin="round"/>
<path d="M23.6424 14.6422H23.6454C23.6454 14.6422 20.2164 13.3582 18.5034 9.9292C16.7874 11.2162 15.5034 11.2162 11.2164 11.2162C10.3584 12.9322 7.3584 14.6452 7.3584 14.6452" stroke="#9B1B48" stroke-linecap="round" stroke-linejoin="round"/>
<path d="M12.501 19.7871C12.501 19.7871 13.5 21.5001 15.501 21.5001C17.502 21.5001 18.501 19.7871 18.501 19.7871" stroke="#9B1B48" stroke-linecap="round" stroke-linejoin="round"/>
<path d="M12.5006 16.787C12.9744 16.787 13.3586 16.4029 13.3586 15.929C13.3586 15.4552 12.9744 15.071 12.5006 15.071C12.0267 15.071 11.6426 15.4552 11.6426 15.929C11.6426 16.4029 12.0267 16.787 12.5006 16.787Z" stroke="#9B1B48" stroke-linecap="round" stroke-linejoin="round"/>
<path d="M18.5006 16.787C18.9744 16.787 19.3586 16.4029 19.3586 15.929C19.3586 15.4552 18.9744 15.071 18.5006 15.071C18.0267 15.071 17.6426 15.4552 17.6426 15.929C17.6426 16.4029 18.0267 16.787 18.5006 16.787Z" stroke="#9B1B48" stroke-linecap="round" stroke-linejoin="round"/>
<path fill-rule="evenodd" clip-rule="evenodd" d="M17.6414 6.48975C23.2124 6.48975 23.6414 10.3447 23.6414 14.6317C24.5864 14.6317 25.3545 15.3998 25.3545 16.3448C25.3545 17.2898 24.5895 18.0578 23.6415 18.0578H23.4585C22.6725 21.7328 19.4085 24.4868 15.4995 24.4868C11.5905 24.4868 8.32953 21.7298 7.54053 18.0578H7.35753C6.41254 18.0578 5.64453 17.2898 5.64453 16.3448C5.64453 15.3998 6.40942 14.6347 7.35742 14.6347V13.7767C7.35742 9.91875 9.07042 6.48975 12.0704 6.48975C13.3544 6.48975 14.6414 6.91875 14.6414 6.91875C14.6414 6.91875 15.9104 6.48975 17.6414 6.48975Z" stroke="white" stroke-linecap="round" stroke-linejoin="round"/>
</svg>
