<svg viewBox="0 0 31 31" fill="none" xmlns="http://www.w3.org/2000/svg">
<path d="M15.5 30.5C23.7843 30.5 30.5 23.7843 30.5 15.5C30.5 7.21573 23.7843 0.5 15.5 0.5C7.21573 0.5 0.5 7.21573 0.5 15.5C0.5 23.7843 7.21573 30.5 15.5 30.5Z" fill="#9B1B48" stroke="#9B1B48" stroke-linecap="round" stroke-linejoin="round"/>
<path d="M19.3794 9.19702C21.4344 10.313 22.9554 12.29 23.4624 14.645C23.4624 14.645 23.5854 14.645 23.6454 14.645C24.5934 14.645 25.3584 15.413 25.3584 16.358C25.3584 17.303 24.5904 18.071 23.6454 18.071C23.5824 18.071 23.4624 18.071 23.4624 18.071C22.6734 21.743 19.4124 24.5 15.5034 24.5C11.5944 24.5 8.33044 21.746 7.54444 18.071C7.54444 18.071 7.42144 18.071 7.36144 18.071C6.41344 18.071 5.64844 17.303 5.64844 16.358C5.64844 15.413 6.41644 14.645 7.36144 14.645C7.42444 14.645 7.54444 14.645 7.54444 14.645C7.89244 13.025 8.72044 11.585 9.87244 10.481" fill="white"/>
<path d="M19.3794 9.19702C21.4344 10.313 22.9554 12.29 23.4624 14.645C23.4624 14.645 23.5854 14.645 23.6454 14.645C24.5934 14.645 25.3584 15.413 25.3584 16.358C25.3584 17.303 24.5904 18.071 23.6454 18.071C23.5824 18.071 23.4624 18.071 23.4624 18.071C22.6734 21.743 19.4124 24.5 15.5034 24.5C11.5944 24.5 8.33044 21.746 7.54444 18.071C7.54444 18.071 7.42144 18.071 7.36144 18.071C6.41344 18.071 5.64844 17.303 5.64844 16.358C5.64844 15.413 6.41644 14.645 7.36144 14.645C7.42444 14.645 7.54444 14.645 7.54444 14.645C7.89244 13.025 8.72044 11.585 9.87244 10.481" stroke="white" stroke-linecap="round" stroke-linejoin="round"/>
<path d="M15.501 10.358C16.359 12.086 14.643 12.929 14.643 12.929C18.501 12.929 19.356 10.787 19.356 9.5C19.356 7.358 17.214 6.5 15.927 6.5C15.069 6.5 14.214 6.5 13.356 7.358C11.721 8.993 10.044 8.72 9.49805 8.216C9.49805 9.731 10.356 11.645 12.498 11.645C14.211 11.645 15.498 10.358 15.498 10.358H15.501Z" fill="#9B1B48" stroke="white" stroke-linecap="round" stroke-linejoin="round"/>
<path d="M18.9293 19.355C18.9293 19.355 17.7503 21.929 15.5003 21.929C13.2503 21.929 12.0713 19.355 12.0713 19.355H18.9293Z" stroke="#9B1B48" stroke-linecap="round" stroke-linejoin="round"/>
<path d="M12.5122 16.3587C12.986 16.3525 13.3651 15.9633 13.3589 15.4895C13.3527 15.0157 12.9636 14.6366 12.4898 14.6428C12.0159 14.649 11.6369 15.0382 11.6431 15.512C11.6493 15.9858 12.0384 16.3649 12.5122 16.3587Z" stroke="#9B1B48" stroke-linecap="round" stroke-linejoin="round"/>
<path d="M18.5123 16.3557C18.9861 16.3498 19.3654 15.9608 19.3595 15.487C19.3535 15.0132 18.9646 14.6339 18.4907 14.6399C18.0169 14.6458 17.6376 15.0347 17.6436 15.5086C17.6495 15.9824 18.0385 16.3617 18.5123 16.3557Z" stroke="#9B1B48" stroke-linecap="round" stroke-linejoin="round"/>
</svg>
