<svg viewBox="0 0 31 31" fill="none" xmlns="http://www.w3.org/2000/svg">
<path d="M15.5 30.5C23.7843 30.5 30.5 23.7843 30.5 15.5C30.5 7.21573 23.7843 0.5 15.5 0.5C7.21573 0.5 0.5 7.21573 0.5 15.5C0.5 23.7843 7.21573 30.5 15.5 30.5Z" stroke="black" stroke-linecap="round" stroke-linejoin="round"/>
<path d="M18.0748 19.3579C18.0748 19.3579 17.1898 21.0739 15.5008 21.0739C13.8118 21.0739 12.9268 19.3579 12.9268 19.3579H18.0748Z" stroke="black" stroke-linecap="round" stroke-linejoin="round"/>
<path d="M12.5122 16.3586C12.986 16.3524 13.3651 15.9632 13.3589 15.4894C13.3527 15.0156 12.9636 14.6365 12.4898 14.6427C12.0159 14.6489 11.6369 15.038 11.6431 15.5119C11.6493 15.9857 12.0384 16.3648 12.5122 16.3586Z" stroke="black" stroke-linecap="round" stroke-linejoin="round"/>
<path d="M18.5112 16.3581C18.9851 16.3519 19.3641 15.9627 19.3579 15.4889C19.3517 15.0151 18.9626 14.636 18.4888 14.6422C18.015 14.6484 17.6359 15.0375 17.6421 15.5114C17.6483 15.9852 18.0374 16.3643 18.5112 16.3581Z" stroke="black" stroke-linecap="round" stroke-linejoin="round"/>
<path d="M23.6425 13.787C23.5795 13.787 23.4595 13.787 23.4595 13.787C22.6735 10.112 19.4095 7.35803 15.5005 7.35803C11.5915 7.35803 8.32751 10.112 7.54151 13.787C7.54151 13.787 7.41851 13.787 7.35851 13.787C6.41051 13.787 5.64551 14.555 5.64551 15.5C5.64551 16.445 6.41351 17.213 7.35851 17.213C7.42151 17.213 7.54151 17.213 7.54151 17.213C8.33051 20.885 11.5915 23.642 15.5005 23.642C19.4095 23.642 22.6735 20.888 23.4595 17.213C23.4595 17.213 23.5825 17.213 23.6425 17.213C24.5905 17.213 25.3555 16.445 25.3555 15.5C25.3555 14.555 24.5875 13.787 23.6425 13.787Z" stroke="black" stroke-linecap="round" stroke-linejoin="round"/>
<path d="M7.78809 12.929C13.7881 12.929 16.3591 9.5 16.3591 9.5C16.3591 9.5 18.5011 12.5 22.7881 12.5" stroke="black" stroke-linecap="round" stroke-linejoin="round"/>
<path d="M8.12669 18.95C8.25269 20.198 8.12669 21.827 6.92969 22.787C7.35869 23.216 8.21669 23.645 9.50069 23.645C10.9767 23.645 11.9517 23.375 12.5607 23.099" stroke="black" stroke-linecap="round" stroke-linejoin="round"/>
<path d="M22.8774 18.95C22.7514 20.198 22.8774 21.827 24.0744 22.787C23.6454 23.216 22.7874 23.645 21.5034 23.645C20.0274 23.645 19.0524 23.375 18.4434 23.099" stroke="black" stroke-linecap="round" stroke-linejoin="round"/>
</svg>
