<svg viewBox="0 0 31 31" fill="none" xmlns="http://www.w3.org/2000/svg">
<path d="M15.5 30.5C23.7843 30.5 30.5 23.7843 30.5 15.5C30.5 7.21573 23.7843 0.5 15.5 0.5C7.21573 0.5 0.5 7.21573 0.5 15.5C0.5 23.7843 7.21573 30.5 15.5 30.5Z" fill="#9B1B48" stroke="#9B1B48" stroke-linecap="round" stroke-linejoin="round"/>
<path d="M18.0811 8.633C18.2161 8.468 19.8571 6.5 21.5011 6.5C23.1451 6.5 24.9301 8.213 25.3591 9.5C23.7631 9.182 23.2171 10.358 21.9301 10.358C21.5011 10.358 21.0211 10.205 20.3071 9.797" fill="white"/>
<path d="M18.0811 8.633C18.2161 8.468 19.8571 6.5 21.5011 6.5C23.1451 6.5 24.9301 8.213 25.3591 9.5C23.7631 9.182 23.2171 10.358 21.9301 10.358C21.5011 10.358 21.0211 10.205 20.3071 9.797" stroke="white" stroke-linecap="round" stroke-linejoin="round"/>
<path d="M12.9206 8.633C12.7856 8.468 11.1446 6.5 9.50058 6.5C7.85658 6.5 6.07158 8.213 5.64258 9.5C7.23858 9.182 7.78458 10.358 9.07158 10.358C9.50058 10.358 9.98058 10.205 10.6946 9.797" fill="white"/>
<path d="M12.9206 8.633C12.7856 8.468 11.1446 6.5 9.50058 6.5C7.85658 6.5 6.07158 8.213 5.64258 9.5C7.23858 9.182 7.78458 10.358 9.07158 10.358C9.50058 10.358 9.98058 10.205 10.6946 9.797" stroke="white" stroke-linecap="round" stroke-linejoin="round"/>
<path d="M23.6425 14.6421C23.5795 14.6421 23.4595 14.6421 23.4595 14.6421C22.6735 10.9671 19.4095 8.21313 15.5005 8.21313C11.5915 8.21313 8.32751 10.9671 7.54151 14.6421C7.54151 14.6421 7.41851 14.6421 7.35851 14.6421C6.41051 14.6421 5.64551 15.4101 5.64551 16.3551C5.64551 17.3001 6.41351 18.0681 7.35851 18.0681C7.42151 18.0681 7.54151 18.0681 7.54151 18.0681C8.33051 21.7401 11.5915 24.4971 15.5005 24.4971C19.4095 24.4971 22.6735 21.7431 23.4595 18.0681C23.4595 18.0681 23.5825 18.0681 23.6425 18.0681C24.5905 18.0681 25.3555 17.3001 25.3555 16.3551C25.3555 15.4101 24.5875 14.6421 23.6425 14.6421Z" fill="white" stroke="white" stroke-linecap="round" stroke-linejoin="round"/>
<path d="M7.78809 13.7872C13.8241 13.7872 15.5011 9.9292 15.5011 9.9292C15.5011 9.9292 17.6131 12.9292 22.7881 12.9292" stroke="#9B1B48" stroke-linecap="round" stroke-linejoin="round"/>
<path d="M23.6425 14.6419C23.5795 14.6419 23.4595 14.6419 23.4595 14.6419C22.6735 10.9669 19.4095 8.21289 15.5005 8.21289C11.5915 8.21289 8.32751 10.9669 7.54151 14.6419C7.54151 14.6419 7.41851 14.6419 7.35851 14.6419C6.41051 14.6419 5.64551 15.4099 5.64551 16.3549C5.64551 17.2999 6.41351 18.0679 7.35851 18.0679C7.42151 18.0679 7.54151 18.0679 7.54151 18.0679C8.33051 21.7399 11.5915 24.4969 15.5005 24.4969C19.4095 24.4969 22.6735 21.7429 23.4595 18.0679C23.4595 18.0679 23.5825 18.0679 23.6425 18.0679C24.5905 18.0679 25.3555 17.2999 25.3555 16.3549C25.3555 15.4099 24.5875 14.6419 23.6425 14.6419Z" stroke="white" stroke-linecap="round" stroke-linejoin="round"/>
<path d="M12.4521 19.7871C12.4521 19.7871 13.7211 21.0741 15.5001 21.0741C17.2791 21.0741 18.5481 19.7871 18.5481 19.7871" stroke="#9B1B48" stroke-linecap="round" stroke-linejoin="round"/>
<path d="M11.2139 16.364C11.2139 16.364 11.6429 15.5 12.5009 15.5C13.3589 15.5 13.7879 16.364 13.7879 16.364" stroke="#9B1B48" stroke-linecap="round" stroke-linejoin="round"/>
<path d="M17.2129 16.364C17.2129 16.364 17.6419 15.5 18.4999 15.5C19.3579 15.5 19.7869 16.364 19.7869 16.364" stroke="#9B1B48" stroke-linecap="round" stroke-linejoin="round"/>
</svg>
