<svg viewBox="0 0 31 31" fill="none" xmlns="http://www.w3.org/2000/svg">
<path d="M15.5 30.5C23.7843 30.5 30.5 23.7843 30.5 15.5C30.5 7.21573 23.7843 0.5 15.5 0.5C7.21573 0.5 0.5 7.21573 0.5 15.5C0.5 23.7843 7.21573 30.5 15.5 30.5Z" fill="#9B1B48" stroke="#9B1B48" stroke-linecap="round" stroke-linejoin="round"/>
<path d="M23.6425 13.7869C23.5795 13.7869 23.4595 13.7869 23.4595 13.7869C22.6735 10.1119 19.4095 7.35791 15.5005 7.35791C11.5915 7.35791 8.32751 10.1119 7.54151 13.7869C7.54151 13.7869 7.41851 13.7869 7.35851 13.7869C6.41051 13.7869 5.64551 14.5549 5.64551 15.4999C5.64551 16.4449 6.41351 17.2129 7.35851 17.2129C7.42151 17.2129 7.54151 17.2129 7.54151 17.2129C8.33051 20.8849 11.5915 23.6419 15.5005 23.6419C19.4095 23.6419 22.6735 20.8879 23.4595 17.2129C23.4595 17.2129 23.5825 17.2129 23.6425 17.2129C24.5905 17.2129 25.3555 16.4449 25.3555 15.4999C25.3555 14.5549 24.5875 13.7869 23.6425 13.7869Z" fill="white" stroke="white" stroke-linecap="round" stroke-linejoin="round"/>
<path d="M7.78809 12.929C13.7881 12.929 16.3591 9.5 16.3591 9.5C16.3591 9.5 18.5011 12.5 22.7881 12.5" stroke="#9B1B48" stroke-linecap="round" stroke-linejoin="round"/>
<path d="M23.6425 13.7869C23.5795 13.7869 23.4595 13.7869 23.4595 13.7869C22.6735 10.1119 19.4095 7.35791 15.5005 7.35791C11.5915 7.35791 8.32751 10.1119 7.54151 13.7869C7.54151 13.7869 7.41851 13.7869 7.35851 13.7869C6.41051 13.7869 5.64551 14.5549 5.64551 15.4999C5.64551 16.4449 6.41351 17.2129 7.35851 17.2129C7.42151 17.2129 7.54151 17.2129 7.54151 17.2129C8.33051 20.8849 11.5915 23.6419 15.5005 23.6419C19.4095 23.6419 22.6735 20.8879 23.4595 17.2129C23.4595 17.2129 23.5825 17.2129 23.6425 17.2129C24.5905 17.2129 25.3555 16.4449 25.3555 15.4999C25.3555 14.5549 24.5875 13.7869 23.6425 13.7869Z" stroke="white" stroke-linecap="round" stroke-linejoin="round"/>
<path d="M8.12669 18.95C8.25269 20.198 8.12669 21.827 6.92969 22.787C7.35869 23.216 8.21669 23.645 9.50069 23.645C10.9767 23.645 11.9517 23.375 12.5607 23.099" stroke="white" stroke-linecap="round" stroke-linejoin="round"/>
<path d="M22.8774 18.95C22.7514 20.198 22.8774 21.827 24.0744 22.787C23.6454 23.216 22.7874 23.645 21.5034 23.645C20.0274 23.645 19.0524 23.375 18.4434 23.099" stroke="white" stroke-linecap="round" stroke-linejoin="round"/>
<path d="M18.0748 19.3579C18.0748 19.3579 17.1898 21.0739 15.5008 21.0739C13.8118 21.0739 12.9268 19.3579 12.9268 19.3579H18.0748Z" stroke="#9B1B48" stroke-linecap="round" stroke-linejoin="round"/>
<path d="M12.5122 16.3584C12.986 16.3522 13.3651 15.9631 13.3589 15.4893C13.3527 15.0155 12.9636 14.6364 12.4898 14.6426C12.0159 14.6488 11.6369 15.0379 11.6431 15.5117C11.6493 15.9856 12.0384 16.3646 12.5122 16.3584Z" stroke="#9B1B48" stroke-linecap="round" stroke-linejoin="round"/>
<path d="M18.5112 16.3579C18.9851 16.3517 19.3641 15.9626 19.3579 15.4888C19.3517 15.015 18.9626 14.6359 18.4888 14.6421C18.015 14.6483 17.6359 15.0374 17.6421 15.5112C17.6483 15.9851 18.0374 16.3641 18.5112 16.3579Z" stroke="#9B1B48" stroke-linecap="round" stroke-linejoin="round"/>
</svg>
