<svg viewBox="0 0 31 31" fill="none" xmlns="http://www.w3.org/2000/svg">
<path d="M15.5 30.5C23.7843 30.5 30.5 23.7843 30.5 15.5C30.5 7.21573 23.7843 0.5 15.5 0.5C7.21573 0.5 0.5 7.21573 0.5 15.5C0.5 23.7843 7.21573 30.5 15.5 30.5Z" fill="#9B1B48" stroke="#9B1B48" stroke-linecap="round" stroke-linejoin="round"/>
<path d="M11.5525 9.23608C9.53351 10.3581 8.03951 12.3171 7.54151 14.6451C7.54151 14.6451 7.41851 14.6451 7.35851 14.6451C6.41051 14.6451 5.64551 15.4131 5.64551 16.3581C5.64551 17.3031 6.41351 18.0711 7.35851 18.0711C7.42151 18.0711 7.54151 18.0711 7.54151 18.0711C8.33051 21.7431 11.5915 24.5001 15.5005 24.5001C19.4095 24.5001 22.6735 21.7461 23.4595 18.0711C23.4595 18.0711 23.5825 18.0711 23.6425 18.0711C24.5905 18.0711 25.3555 17.3031 25.3555 16.3581C25.3555 15.4131 24.5875 14.6451 23.6425 14.6451C23.5795 14.6451 23.4595 14.6451 23.4595 14.6451C22.9615 12.3171 21.4675 10.3611 19.4485 9.23608" fill="white"/>
<path d="M11.5525 9.23608C9.53351 10.3581 8.03951 12.3171 7.54151 14.6451C7.54151 14.6451 7.41851 14.6451 7.35851 14.6451C6.41051 14.6451 5.64551 15.4131 5.64551 16.3581C5.64551 17.3031 6.41351 18.0711 7.35851 18.0711C7.42151 18.0711 7.54151 18.0711 7.54151 18.0711C8.33051 21.7431 11.5915 24.5001 15.5005 24.5001C19.4095 24.5001 22.6735 21.7461 23.4595 18.0711C23.4595 18.0711 23.5825 18.0711 23.6425 18.0711C24.5905 18.0711 25.3555 17.3031 25.3555 16.3581C25.3555 15.4131 24.5875 14.6451 23.6425 14.6451C23.5795 14.6451 23.4595 14.6451 23.4595 14.6451C22.9615 12.3171 21.4675 10.3611 19.4485 9.23608" stroke="white" stroke-linecap="round" stroke-linejoin="round"/>
<path d="M15.5006 9.07098C15.9744 9.07098 16.3586 8.68684 16.3586 8.21298C16.3586 7.73912 15.9744 7.35498 15.5006 7.35498C15.0267 7.35498 14.6426 7.73912 14.6426 8.21298C14.6426 8.68684 15.0267 9.07098 15.5006 9.07098Z" fill="#9B1B48" stroke="white" stroke-linecap="round" stroke-linejoin="round"/>
<path d="M18.0714 9.926C19.0175 9.926 19.7844 9.15906 19.7844 8.213C19.7844 7.26694 19.0175 6.5 18.0714 6.5C17.1253 6.5 16.3584 7.26694 16.3584 8.213C16.3584 9.15906 17.1253 9.926 18.0714 9.926Z" fill="#9B1B48" stroke="white" stroke-linecap="round" stroke-linejoin="round"/>
<path d="M12.9298 9.926C13.8759 9.926 14.6428 9.15906 14.6428 8.213C14.6428 7.26694 13.8759 6.5 12.9298 6.5C11.9837 6.5 11.2168 7.26694 11.2168 8.213C11.2168 9.15906 11.9837 9.926 12.9298 9.926Z" fill="#9B1B48" stroke="white" stroke-linecap="round" stroke-linejoin="round"/>
<path d="M13.3592 14.2131C13.3592 14.2131 12.9302 15.0711 12.0722 15.0711C11.2142 15.0711 10.7852 14.2131 10.7852 14.2131" stroke="#9B1B48" stroke-linecap="round" stroke-linejoin="round"/>
<path d="M20.2136 14.2131C20.2136 14.2131 19.7846 15.0711 18.9266 15.0711C18.0686 15.0711 17.6396 14.2131 17.6396 14.2131" stroke="#9B1B48" stroke-linecap="round" stroke-linejoin="round"/>
<path d="M15.5007 22.3581C16.9206 22.3581 18.0717 21.207 18.0717 19.7871C18.0717 18.3671 16.9206 17.2161 15.5007 17.2161C14.0808 17.2161 12.9297 18.3671 12.9297 19.7871C12.9297 21.207 14.0808 22.3581 15.5007 22.3581Z" stroke="#9B1B48" stroke-linecap="round" stroke-linejoin="round"/>
<path d="M15.5006 20.645C15.9744 20.645 16.3586 20.2608 16.3586 19.787C16.3586 19.3131 15.9744 18.929 15.5006 18.929C15.0267 18.929 14.6426 19.3131 14.6426 19.787C14.6426 20.2608 15.0267 20.645 15.5006 20.645Z" stroke="#9B1B48" stroke-linecap="round" stroke-linejoin="round"/>
</svg>
