<svg viewBox="0 0 31 31" fill="none" xmlns="http://www.w3.org/2000/svg">
<path d="M15.5 30.5C23.7843 30.5 30.5 23.7843 30.5 15.5C30.5 7.21573 23.7843 0.5 15.5 0.5C7.21573 0.5 0.5 7.21573 0.5 15.5C0.5 23.7843 7.21573 30.5 15.5 30.5Z" fill="#9B1B48" stroke="#9B1B48" stroke-linecap="round" stroke-linejoin="round"/>
<path d="M15.5005 8.21289C11.5915 8.21289 8.32751 10.9669 7.54151 14.6419C7.54151 14.6419 7.41851 14.6419 7.35851 14.6419C6.41051 14.6419 5.64551 15.4099 5.64551 16.3549C5.64551 17.2999 6.41351 18.0679 7.35851 18.0679C7.42151 18.0679 7.54151 18.0679 7.54151 18.0679C8.33051 21.7399 11.5915 24.4969 15.5005 24.4969C19.4095 24.4969 22.6735 21.7429 23.4595 18.0679C23.4595 18.0679 23.5825 18.0679 23.6425 18.0679C24.5905 18.0679 25.3555 17.2999 25.3555 16.3549C25.3555 15.4099 24.5875 14.6419 23.6425 14.6419C23.5795 14.6419 23.4595 14.6419 23.4595 14.6419C22.8805 11.9359 20.9575 9.72789 18.4225 8.75289" fill="white"/>
<path d="M15.5005 8.21289C11.5915 8.21289 8.32751 10.9669 7.54151 14.6419C7.54151 14.6419 7.41851 14.6419 7.35851 14.6419C6.41051 14.6419 5.64551 15.4099 5.64551 16.3549C5.64551 17.2999 6.41351 18.0679 7.35851 18.0679C7.42151 18.0679 7.54151 18.0679 7.54151 18.0679C8.33051 21.7399 11.5915 24.4969 15.5005 24.4969C19.4095 24.4969 22.6735 21.7429 23.4595 18.0679C23.4595 18.0679 23.5825 18.0679 23.6425 18.0679C24.5905 18.0679 25.3555 17.2999 25.3555 16.3549C25.3555 15.4099 24.5875 14.6419 23.6425 14.6419C23.5795 14.6419 23.4595 14.6419 23.4595 14.6419C22.8805 11.9359 20.9575 9.72789 18.4225 8.75289" stroke="white" stroke-linecap="round" stroke-linejoin="round"/>
<ellipse cx="16.2104" cy="9.84912" rx="2.09424" ry="2.06299" fill="#9B1B48"/>
<path d="M12.501 7.358C12.501 7.358 13.359 6.5 15.072 6.5C16.785 6.5 18.501 7.358 18.501 9.5C18.501 11.213 17.214 12.071 15.93 12.071C14.217 12.071 13.788 10.787 13.788 9.929C13.788 9.071 14.217 8.216 15.501 8.216C16.359 8.216 16.788 8.879 16.788 9.503C16.788 10.127 16.359 10.361 16.359 10.361" stroke="white" stroke-linecap="round" stroke-linejoin="round"/>
<path d="M15.5007 22.3581C16.9206 22.3581 18.0717 21.207 18.0717 19.7871C18.0717 18.3671 16.9206 17.2161 15.5007 17.2161C14.0808 17.2161 12.9297 18.3671 12.9297 19.7871C12.9297 21.207 14.0808 22.3581 15.5007 22.3581Z" stroke="#9B1B48" stroke-linecap="round" stroke-linejoin="round"/>
<path d="M15.5006 20.645C15.9744 20.645 16.3586 20.2608 16.3586 19.787C16.3586 19.3131 15.9744 18.929 15.5006 18.929C15.0267 18.929 14.6426 19.3131 14.6426 19.787C14.6426 20.2608 15.0267 20.645 15.5006 20.645Z" stroke="#9B1B48" stroke-linecap="round" stroke-linejoin="round"/>
<path d="M12.0719 15.5002C12.5457 15.5002 12.9299 15.116 12.9299 14.6422C12.9299 14.1683 12.5457 13.7842 12.0719 13.7842C11.598 13.7842 11.2139 14.1683 11.2139 14.6422C11.2139 15.116 11.598 15.5002 12.0719 15.5002Z" stroke="#9B1B48" stroke-linecap="round" stroke-linejoin="round"/>
<path d="M18.9293 15.5002C19.4031 15.5002 19.7873 15.116 19.7873 14.6422C19.7873 14.1683 19.4031 13.7842 18.9293 13.7842C18.4554 13.7842 18.0713 14.1683 18.0713 14.6422C18.0713 15.116 18.4554 15.5002 18.9293 15.5002Z" stroke="#9B1B48" stroke-linecap="round" stroke-linejoin="round"/>
</svg>
