<svg width="470.0180358886719" height="320" viewBox="27.385475158691406 130 478.0180358886719 328" fill="none" xmlns="http://www.w3.org/2000/svg">
<path d="M440.395 195V393H92.3945V195H440.395ZM441.395 194H91.3945V394H441.395V194Z" stroke="black" stroke-width="5"/>
<path d="M137.71 134V135C144.11 135 150.13 137.49 154.65 142.02C159.17 146.55 161.66 152.57 161.65 158.97C161.63 172.21 150.85 182.99 137.59 183C131.19 183 125.17 180.51 120.65 175.98C116.13 171.45 113.64 165.43 113.65 159.03C113.67 145.79 124.45 135.01 137.68 135L137.71 134ZM137.71 134C137.7 134 137.69 134 137.68 134C123.87 134.02 112.67 145.22 112.65 159.03C112.63 172.83 123.8 184 137.59 184C137.6 184 137.61 184 137.62 184C151.43 183.98 162.63 172.78 162.65 158.97C162.67 145.18 151.5 134 137.71 134Z" stroke="black" stroke-width="5"/>
<path d="M262.69 134.49V135.49C269.09 135.49 275.11 137.98 279.63 142.51C284.15 147.04 286.64 153.06 286.63 159.46C286.61 172.7 275.83 183.48 262.57 183.49C256.17 183.49 250.15 181 245.63 176.47C241.11 171.94 238.62 165.92 238.63 159.52C238.65 146.28 249.43 135.5 262.66 135.49L262.69 134.49ZM262.69 134.49C262.68 134.49 262.67 134.49 262.66 134.49C248.85 134.51 237.65 145.71 237.63 159.52C237.61 173.32 248.78 184.49 262.57 184.49C262.58 184.49 262.59 184.49 262.6 184.49C276.41 184.47 287.61 173.27 287.63 159.46C287.65 145.67 276.48 134.49 262.69 134.49Z" stroke="black" stroke-width="5"/>
<path d="M385.17 134.49V135.49C391.57 135.49 397.59 137.98 402.11 142.51C406.63 147.04 409.12 153.06 409.11 159.46C409.09 172.7 398.31 183.48 385.05 183.49C378.65 183.49 372.63 181 368.11 176.47C363.59 171.94 361.1 165.92 361.11 159.52C361.13 146.28 371.91 135.5 385.14 135.49L385.17 134.49ZM385.17 134.49C385.16 134.49 385.15 134.49 385.14 134.49C371.33 134.51 360.13 145.71 360.11 159.52C360.09 173.32 371.26 184.49 385.05 184.49C385.06 184.49 385.07 184.49 385.08 184.49C398.89 184.47 410.09 173.27 410.11 159.46C410.13 145.67 398.97 134.49 385.17 134.49Z" stroke="black" stroke-width="5"/>
<path d="M141.96 404V405C148.36 405 154.38 407.49 158.9 412.02C163.42 416.55 165.91 422.57 165.9 428.97C165.88 442.21 155.1 452.99 141.84 453C135.44 453 129.42 450.51 124.9 445.98C120.38 441.45 117.89 435.43 117.9 429.03C117.92 415.79 128.7 405.01 141.93 405L141.96 404ZM141.96 404C141.95 404 141.94 404 141.93 404C128.12 404.02 116.92 415.22 116.9 429.03C116.88 442.83 128.05 454 141.84 454C141.85 454 141.86 454 141.87 454C155.68 453.98 166.88 442.78 166.9 428.97C166.92 415.17 155.75 404 141.96 404Z" fill="black"/>
<path d="M141.96 404V405C148.36 405 154.38 407.49 158.9 412.02C163.42 416.55 165.91 422.57 165.9 428.97C165.88 442.21 155.1 452.99 141.84 453C135.44 453 129.42 450.51 124.9 445.98C120.38 441.45 117.89 435.43 117.9 429.03C117.92 415.79 128.7 405.01 141.93 405L141.96 404ZM141.96 404C141.95 404 141.94 404 141.93 404C128.12 404.02 116.92 415.22 116.9 429.03C116.88 442.83 128.05 454 141.84 454C141.85 454 141.86 454 141.87 454C155.68 453.98 166.88 442.78 166.9 428.97C166.92 415.17 155.75 404 141.96 404Z" stroke="black" stroke-width="5"/>
<path d="M266.94 404V405C273.34 405 279.36 407.49 283.88 412.02C288.4 416.55 290.89 422.57 290.88 428.97C290.86 442.21 280.08 452.99 266.82 453C260.42 453 254.4 450.51 249.88 445.98C245.36 441.45 242.87 435.43 242.88 429.03C242.9 415.79 253.68 405.01 266.91 405L266.94 404ZM266.94 404C266.93 404 266.92 404 266.91 404C253.1 404.02 241.9 415.22 241.88 429.03C241.86 442.83 253.03 454 266.82 454C266.83 454 266.84 454 266.85 454C280.66 453.98 291.86 442.78 291.88 428.97C291.9 415.17 280.73 404 266.94 404Z" fill="black"/>
<path d="M266.94 404V405C273.34 405 279.36 407.49 283.88 412.02C288.4 416.55 290.89 422.57 290.88 428.97C290.86 442.21 280.08 452.99 266.82 453C260.42 453 254.4 450.51 249.88 445.98C245.36 441.45 242.87 435.43 242.88 429.03C242.9 415.79 253.68 405.01 266.91 405L266.94 404ZM266.94 404C266.93 404 266.92 404 266.91 404C253.1 404.02 241.9 415.22 241.88 429.03C241.86 442.83 253.03 454 266.82 454C266.83 454 266.84 454 266.85 454C280.66 453.98 291.86 442.78 291.88 428.97C291.9 415.17 280.73 404 266.94 404Z" stroke="black" stroke-width="5"/>
<path d="M389.42 404V405C395.82 405 401.84 407.49 406.36 412.02C410.88 416.55 413.37 422.57 413.36 428.97C413.34 442.21 402.56 452.99 389.3 453C382.9 453 376.88 450.51 372.36 445.98C367.84 441.45 365.35 435.43 365.36 429.03C365.38 415.79 376.16 405.01 389.39 405L389.42 404ZM389.42 404C389.41 404 389.4 404 389.39 404C375.58 404.02 364.38 415.22 364.36 429.03C364.34 442.83 375.51 454 389.3 454C389.31 454 389.32 454 389.33 454C403.14 453.98 414.34 442.78 414.36 428.97C414.38 415.17 403.22 404 389.42 404Z" fill="black"/>
<path d="M389.42 404V405C395.82 405 401.84 407.49 406.36 412.02C410.88 416.55 413.37 422.57 413.36 428.97C413.34 442.21 402.56 452.99 389.3 453C382.9 453 376.88 450.51 372.36 445.98C367.84 441.45 365.35 435.43 365.36 429.03C365.38 415.79 376.16 405.01 389.39 405L389.42 404ZM389.42 404C389.41 404 389.4 404 389.39 404C375.58 404.02 364.38 415.22 364.36 429.03C364.34 442.83 375.51 454 389.3 454C389.31 454 389.32 454 389.33 454C403.14 453.98 414.34 442.78 414.36 428.97C414.38 415.17 403.22 404 389.42 404Z" stroke="black" stroke-width="5"/>
<path d="M56.44 263.48C56.57 263.48 56.71 263.48 56.84 263.48C63.25 263.58 69.23 266.18 73.67 270.78C78.12 275.39 80.5 281.45 80.38 287.86C80.14 300.88 69.35 311.47 56.33 311.47C56.2 311.47 56.06 311.47 55.93 311.47C49.52 311.37 43.54 308.77 39.1 304.17C34.65 299.56 32.27 293.5 32.39 287.09C32.63 274.07 43.42 263.48 56.44 263.48ZM56.44 262.48C42.82 262.48 31.65 273.41 31.39 287.07C31.13 300.88 42.11 312.25 55.92 312.47C56.06 312.47 56.2 312.47 56.34 312.47C69.96 312.47 81.13 301.54 81.39 287.88C81.65 274.07 70.67 262.7 56.86 262.48C56.71 262.48 56.58 262.48 56.44 262.48Z" fill="black" stroke="black" stroke-width="5"/>
<path d="M476.449 260.72C476.579 260.72 476.719 260.72 476.849 260.72C483.259 260.82 489.239 263.42 493.679 268.02C498.129 272.63 500.509 278.69 500.389 285.1C500.149 298.12 489.359 308.71 476.339 308.71C476.209 308.71 476.069 308.71 475.939 308.71C469.529 308.61 463.549 306.01 459.109 301.41C454.659 296.8 452.279 290.74 452.399 284.33C452.649 271.31 463.429 260.72 476.449 260.72ZM476.449 259.72C462.829 259.72 451.659 270.65 451.399 284.31C451.139 298.12 462.119 309.49 475.929 309.71C476.069 309.71 476.209 309.71 476.349 309.71C489.969 309.71 501.139 298.78 501.399 285.12C501.659 271.31 490.679 259.94 476.869 259.72C476.729 259.72 476.589 259.72 476.449 259.72Z" fill="black" stroke="black" stroke-width="5"/>
</svg>