<svg width="300" height="57.5" viewBox="102 180 308 65.5" fill="none" xmlns="http://www.w3.org/2000/svg">
<line y1="-2.5" x2="300" y2="-2.5" transform="matrix(-1 0 0 1 406 244)" stroke="black" stroke-width="5"/>
<path d="M361 234C347.193 234 336 222.807 336 209C336 195.193 347.193 184 361 184C374.807 184 386 195.193 386 209C386 222.807 374.807 234 361 234Z" stroke="black" stroke-width="5" stroke-miterlimit="10"/>
<path d="M291 234C277.193 234 266 222.807 266 209C266 195.193 277.193 184 291 184C304.807 184 316 195.193 316 209C316 222.807 304.807 234 291 234Z" stroke="black" stroke-width="5" stroke-miterlimit="10"/>
<path d="M221 234C207.193 234 196 222.807 196 209C196 195.193 207.193 184 221 184C234.807 184 246 195.193 246 209C246 222.807 234.807 234 221 234Z" stroke="black" stroke-width="5" stroke-miterlimit="10"/>
<path d="M151 234C137.193 234 126 222.807 126 209C126 195.193 137.193 184 151 184C164.807 184 176 195.193 176 209C176 222.807 164.807 234 151 234Z" stroke="black" stroke-width="5" stroke-miterlimit="10"/>
</svg>