<svg width="324" height="320" viewBox="84 80 332 328" fill="none" xmlns="http://www.w3.org/2000/svg">
<path d="M148 144H348V344H148V144Z" stroke="black" stroke-width="5" stroke-miterlimit="10"/>
<path d="M250 134C236.193 134 225 122.807 225 109C225 95.1929 236.193 84 250 84C263.807 84 275 95.1929 275 109C275 122.807 263.807 134 250 134Z" stroke="black" stroke-width="5" stroke-miterlimit="10"/>
<path d="M113 269C99.1929 269 88 257.807 88 244C88 230.193 99.1929 219 113 219C126.807 219 138 230.193 138 244C138 257.807 126.807 269 113 269Z" stroke="black" stroke-width="5" stroke-miterlimit="10"/>
<path d="M250 404C236.193 404 225 392.807 225 379C225 365.193 236.193 354 250 354C263.807 354 275 365.193 275 379C275 392.807 263.807 404 250 404Z" stroke="black" stroke-width="5" stroke-miterlimit="10"/>
<path d="M387 269C373.193 269 362 257.807 362 244C362 230.193 373.193 219 387 219C400.807 219 412 230.193 412 244C412 257.807 400.807 269 387 269Z" stroke="black" stroke-width="5" stroke-miterlimit="10"/>
</svg>