<svg width="307.0138244628906" height="293.4740905761719" viewBox="98.3971176147461 102.22579193115234 315.0138244628906 301.4740905761719" fill="none" xmlns="http://www.w3.org/2000/svg">
<line y1="-5" x2="300" y2="-5" transform="matrix(-0.207442 0.978247 0.978247 0.207442 289.116 107.263)" stroke="black" stroke-width="10"/>
<path d="M161 167C147.193 167 136 155.807 136 142C136 128.193 147.193 117 161 117C174.807 117 186 128.193 186 142C186 155.807 174.807 167 161 167Z" fill="black" stroke="black" stroke-width="5" stroke-miterlimit="10"/>
<path d="M351 167C337.193 167 326 155.807 326 142C326 128.193 337.193 117 351 117C364.807 117 376 128.193 376 142C376 155.807 364.807 167 351 167Z" fill="black" stroke="black" stroke-width="5" stroke-miterlimit="10"/>
<path d="M343.913 203.096C346.243 196.369 355.757 196.369 358.087 203.096L408.992 350.045C410.679 354.917 407.061 360 401.905 360H300.095C294.939 360 291.321 354.917 293.008 350.045L343.913 203.096Z" fill="black" stroke="black" stroke-width="5"/>
<path d="M167.214 353.276C164.853 359.992 155.34 359.949 153.04 353.211L102.805 206.032C101.14 201.152 104.781 196.086 109.937 196.109L211.746 196.573C216.902 196.596 220.497 201.695 218.787 206.56L167.214 353.276Z" fill="black" stroke="black" stroke-width="5"/>
</svg>