<svg width="300" height="200" viewBox="102 152 308 208" fill="none" xmlns="http://www.w3.org/2000/svg">
<path d="M406 156H397V157H406V156ZM388 156H379V157H388V156ZM370 156H361V157H370V156ZM352 156H343V157H352V156ZM334 156H325V157H334V156ZM316 156H307V157H316V156ZM298 156H289V157H298V156ZM280 156H271V157H280V156ZM262 156H253V157H262V156ZM244 156H235V157H244V156ZM226 156H217V157H226V156ZM208 156H199V157H208V156ZM190 156H181V157H190V156ZM172 156H163V157H172V156ZM154 156H145V157H154V156ZM136 156H127V157H136V156ZM118 156H109V157H118V156ZM106.75 164H106V176H106.75V164ZM106.75 188H106V200H106.75V188ZM106.75 212H106V224H106.75V212ZM106.75 236H106V248H106.75V236ZM106.75 260H106V272H106.75V260ZM106.75 284H106V296H106.75V284ZM106.75 308H106V320H106.75V308ZM106.75 332H106V344H106.75V332ZM115 355H106V356H115V355ZM133 355H124V356H133V355ZM151 355H142V356H151V355ZM169 355H160V356H169V355ZM187 355H178V356H187V355ZM205 355H196V356H205V355ZM223 355H214V356H223V355ZM241 355H232V356H241V355ZM259 355H250V356H259V355ZM277 355H268V356H277V355ZM295 355H286V356H295V355ZM313 355H304V356H313V355ZM331 355H322V356H331V355ZM349 355H340V356H349V355ZM367 355H358V356H367V355ZM385 355H376V356H385V355ZM403 355H394V356H403V355ZM406 336H405.25V348H406V336ZM406 312H405.25V324H406V312ZM406 288H405.25V300H406V288ZM406 264H405.25V276H406V264ZM406 240H405.25V252H406V240ZM406 216H405.25V228H406V216ZM406 192H405.25V204H406V192ZM406 168H405.25V180H406V168Z" fill="black" stroke="black" stroke-width="5"/>
<path d="M261.257 294.654C261.257 294.654 206.819 271.057 211.257 243.154C216.202 212.063 243.391 173.848 273.757 182.154C299.618 189.227 275.257 217.154 305.257 243.154C335.257 269.154 261.257 302.654 261.257 302.654" stroke="black" stroke-width="5"/>
<line x1="260.348" y1="285.123" x2="285.348" y2="263.123" stroke="black" stroke-width="5"/>
<line x1="260.5" y1="230" x2="260.5" y2="338" stroke="black" stroke-width="5"/>
<line x1="245" y1="335.5" x2="279" y2="335.5" stroke="black" stroke-width="5"/>
<path d="M237.112 243.682L258.905 254.5" stroke="black" stroke-width="5"/>
<path d="M342.689 259.476C342.689 259.476 305.114 243.183 308.178 223.916C311.591 202.448 330.357 176.062 351.317 181.796C369.167 186.68 352.352 205.963 373.059 223.916C393.766 241.869 342.689 265 342.689 265" stroke="black" stroke-width="3"/>
<line x1="342.211" y1="252.672" x2="359.466" y2="237.487" stroke="black" stroke-width="3"/>
<line x1="341.5" y1="214" x2="341.5" y2="289" stroke="black" stroke-width="3"/>
<line x1="331" y1="287.5" x2="355" y2="287.5" stroke="black" stroke-width="3"/>
<path d="M326.023 223.899L341.066 231.366" stroke="black" stroke-width="3"/>
<path d="M169.689 270.476C169.689 270.476 132.114 254.183 135.178 234.916C138.591 213.448 157.357 187.062 178.317 192.796C196.167 197.68 179.352 216.963 200.059 234.916C220.766 252.869 169.689 276 169.689 276" stroke="black" stroke-width="3"/>
<line x1="169.211" y1="263.672" x2="186.466" y2="248.487" stroke="black" stroke-width="3"/>
<line x1="168.5" y1="225" x2="168.5" y2="300" stroke="black" stroke-width="3"/>
<line x1="158" y1="298.5" x2="182" y2="298.5" stroke="black" stroke-width="3"/>
<path d="M153.023 234.899L168.066 242.366" stroke="black" stroke-width="3"/>
</svg>