<svg viewBox="0 0 31 31" fill="none" xmlns="http://www.w3.org/2000/svg">
<path d="M30.5 15.5C30.5 23.783 23.783 30.5 15.5 30.5C7.217 30.5 0.5 23.783 0.5 15.5C0.5 7.217 7.217 0.5 15.5 0.5C23.783 0.5 30.5 7.217 30.5 15.5Z" fill="#9FC95A" stroke="#9FC95A" stroke-linecap="round" stroke-linejoin="round"/>
<path d="M19.0524 5.98706C18.4434 7.73906 16.9494 9.09506 15.3684 9.93206C13.7904 10.7721 12.2934 11.4531 11.0004 12.6891C9.32941 14.2851 8.32441 16.8921 10.1604 19.5801C14.0304 22.9581 18.8064 21.5601 21.2394 17.9961C23.3664 14.8821 22.9434 8.66906 19.0494 5.98706H19.0524Z" fill="#9FC95A" stroke="white" stroke-linecap="round" stroke-linejoin="round"/>
<path d="M16.5054 15.1582C15.3564 16.5022 12.5634 17.5342 11.0274 18.8002C9.62935 19.9522 8.73535 21.6112 8.73535 24.2692" fill="#9FC95A"/>
<path d="M16.5054 15.1582C15.3564 16.5022 12.5634 17.5342 11.0274 18.8002C9.62935 19.9522 8.73535 21.6112 8.73535 24.2692" stroke="white" stroke-linecap="round" stroke-linejoin="round"/>
</svg>
