<svg viewBox="0 0 31 31" fill="none" xmlns="http://www.w3.org/2000/svg">
<path d="M30.5 15.5C30.5 23.783 23.783 30.5 15.5 30.5C7.217 30.5 0.5 23.783 0.5 15.5C0.5 7.217 7.217 0.5 15.5 0.5C23.783 0.5 30.5 7.217 30.5 15.5Z" fill="#3CB54A" stroke="#3CB54A" stroke-linecap="round" stroke-linejoin="round"/>
<path d="M19.7262 14.4319L23.0832 14.5129C24.1092 14.5129 24.9462 13.6819 24.9462 12.6679C24.9462 11.6539 24.1062 10.8229 23.0832 10.8229H22.7952L24.4932 9.13994C25.2192 8.42294 25.2192 7.24694 24.4932 6.52994C23.7672 5.81294 22.5822 5.81294 21.8562 6.52994L20.3022 8.06894C20.3022 7.05494 19.4622 6.22694 18.4392 6.22694C17.4162 6.22694 16.5762 7.05794 16.5762 8.07194L16.6032 11.3149" stroke="white" stroke-linecap="round" stroke-linejoin="round"/>
<path d="M17.1404 11.804C15.6344 10.475 13.2614 10.91 12.2804 12.656L6.01344 23.801C5.76444 24.521 6.46044 25.211 7.18944 24.965L18.4544 18.782C20.2544 17.795 20.6714 15.377 19.2584 13.895C19.2374 13.871 17.1914 11.849 17.1434 11.807L17.1404 11.804Z" stroke="white" stroke-linecap="round" stroke-linejoin="round"/>
<path d="M12.6162 12.1489L17.0682 16.5619" stroke="white" stroke-linecap="round" stroke-linejoin="round"/>
<path d="M15.7724 20.252L12.5654 17.072" stroke="white" stroke-linecap="round" stroke-linejoin="round"/>
<path d="M9.23828 18.062L11.2903 20.096" stroke="white" stroke-linecap="round" stroke-linejoin="round"/>
<path d="M10.4322 22.955L9.57422 22.106" stroke="white" stroke-linecap="round" stroke-linejoin="round"/>
</svg>
